<svg width="20" height="20" viewBox="0 0 20 20" fill="none" xmlns="http://www.w3.org/2000/svg"><path d="M16.666 5H9.999L8.824 3.825a1.672 1.672 0 00-1.183-.492H3.333c-.917 0-1.659.75-1.659 1.667l-.008 10c0 .917.75 1.667 1.667 1.667h13.333c.917 0 1.667-.75 1.667-1.667V6.667c0-.917-.75-1.667-1.667-1.667zm-5.833 8.333h-5a.836.836 0 01-.834-.833c0-.458.375-.833.834-.833h5c.458 0 .833.375.833.833a.836.836 0 01-.833.833zM14.166 10H5.833a.836.836 0 01-.834-.833c0-.459.375-.834.834-.834h8.333c.458 0 .833.375.833.834a.836.836 0 01-.833.833z" fill="#9FACB1"/></svg>