<svg width="40" height="40" viewBox="0 0 40 40" fill="none" xmlns="http://www.w3.org/2000/svg"><path d="M28.516 4.382c-2.731-2.45-6.263-3.58-9.946-3.179-5.866.638-10.594 5.36-11.244 11.226-.454 4.104 1.018 8.054 4.038 10.836 1.41 1.298 2.4 2.889 2.9 4.627a2.211 2.211 0 00-1.511 2.09c0 1.221.993 2.216 2.215 2.216h10.064a1.057 1.057 0 010 2.112H14.968a1.057 1.057 0 01-1.006-1.38.58.58 0 10-1.103-.358 2.218 2.218 0 002.108 2.898h.99a4.095 4.095 0 004.042 3.406 4.12 4.12 0 003.316-1.687.58.58 0 10-.936-.684A2.918 2.918 0 0120 37.718a2.941 2.941 0 01-2.863-2.247h7.896a2.219 2.219 0 002.216-2.216c0-.65-.287-1.23-.735-1.636.448-.406.735-.985.735-1.636a2.218 2.218 0 00-2.216-2.216h-9.595c-.538-2.02-1.668-3.863-3.288-5.354-2.746-2.53-4.084-6.122-3.67-9.856.59-5.33 4.887-9.62 10.216-10.2 3.355-.364 6.563.662 9.046 2.89a11.613 11.613 0 013.854 8.634c0 3.253-1.378 6.376-3.78 8.569a11.237 11.237 0 00-2.234 2.807.579.579 0 101.012.567 10.098 10.098 0 012.004-2.519 12.786 12.786 0 004.157-9.424c0-3.62-1.544-7.08-4.238-9.498zm-3.483 24.544a1.057 1.057 0 010 2.112H14.967a1.057 1.057 0 010-2.112h10.064z" fill="#C01A6C"/><path stroke="#C01A6C" stroke-width="1.5" stroke-linecap="round" d="M4.532 7.419L6.26 8.801m-.937 7.893l-1.728 1.382M1.33 12.583h3.717m30.421-5.164L33.74 8.8m.938 7.894l1.727 1.382m2.265-5.493h-3.717"/><path d="M18.39 9.023h-2.425a.413.413 0 00-.413.414v3.695a.414.414 0 00.414.413 1.104 1.104 0 010 2.207.413.413 0 00-.414.414v3.674a.414.414 0 00.414.413h2.438a1.93 1.93 0 003.771 0h2.44a.412.412 0 00.291-.12s0 0 0 0l-.07-.071L18.39 9.023zm0 0a1.93 1.93 0 013.8 0h2.424a.413.413 0 01.413.414v3.695a.414.414 0 01-.413.413 1.104 1.104 0 000 2.207c.11 0 .215.044.292.121 0 0 0 0 0 0l-.07.07-6.446-6.92zm1.12-.44a1.103 1.103 0 00-.324.78v.031a.41.41 0 01-.242.42.413.413 0 01-.169.036H16.38v2.913a1.93 1.93 0 010 3.771v2.893h2.394a.414.414 0 01.413.413 1.104 1.104 0 002.207 0 .413.413 0 01.414-.413H24.2v-2.893a1.93 1.93 0 010-3.771V9.85h-2.397s0 0 0 0a.413.413 0 01-.41-.456v-.03 0a1.103 1.103 0 00-1.884-.78z" fill="#C01A6C" stroke="#C01A6C" stroke-width=".2"/></svg>