<svg width="40" height="40" viewBox="0 0 40 40" fill="none" xmlns="http://www.w3.org/2000/svg"><path d="M1.547 18.75v-.14a.11.11 0 01.016-.079V18.5c.015-.031.015-.063.03-.078h.016l2.188-5.485a2.172 2.172 0 012.031-1.374h5.719V10a.938.938 0 01.937-.938h23.75a2.188 2.188 0 012.188 2.188v17.5a2.188 2.188 0 01-2.188 2.188h-2.28a4.687 4.687 0 01-9.188 0h-9.563a4.687 4.687 0 01-9.187 0H3.734a2.188 2.188 0 01-2.187-2.188v-10zm4.281-5.313a.344.344 0 00-.297.204l-1.656 4.171h7.672v-4.375H5.828zm30.406-2.5H13.422v10.626h23.125V11.25a.312.312 0 00-.313-.313zm.313 17.813v-5.313H13.422v2.813a4.735 4.735 0 011.781 2.813h9.563a4.688 4.688 0 019.187 0h2.281a.312.312 0 00.313-.313zm-7.188 4.063A2.813 2.813 0 1026.547 30a2.828 2.828 0 002.812 2.813zm-18.75 0A2.813 2.813 0 107.797 30a2.828 2.828 0 002.812 2.813zM3.422 28.75a.313.313 0 00.312.313h2.282a4.687 4.687 0 015.53-3.657v-5.718H3.423v9.062z" fill="#C01A6C"/></svg>