<svg width="40" height="40" viewBox="0 0 40 40" fill="none" xmlns="http://www.w3.org/2000/svg"><path d="M14.398 21.953c1.2 2.363 4.595.307 3.32-2.029a34.222 34.222 0 00-4.417-6.3c-1.017-1.147-2.825-.63-3.226.874a2.156 2.156 0 00.502 2.042 22.678 22.678 0 013.82 5.413zm-3.294-7.136c.177-.664.967-.911 1.423-.397a33.073 33.073 0 014.268 6.088c.563 1.03-.93 1.935-1.458.893a23.826 23.826 0 00-4.014-5.688.946.946 0 01-.219-.896z" fill="#C01A6C"/><path d="M7.25 12C6.008 12 5 13.041 5 14.32v18.36C5 33.958 6.009 35 7.25 35h12.5c1.312 0 2.377-1.212 2.238-2.56-.286-2.77-1.07-5.558-1.511-6.974-.3-.962-1.16-1.608-2.14-1.608h-3.192c-.396 0-.768-.2-.995-.535L9.716 16.76a1.272 1.272 0 01-.218-.716V14.32C9.498 13.04 8.49 12 7.25 12zm6.05 11.934a2.23 2.23 0 001.845.994h3.191c.529 0 .992.348 1.154.865.43 1.377 1.19 4.086 1.467 6.76.075.725-.501 1.378-1.207 1.378H7.25c-.67 0-1.213-.562-1.213-1.252V14.321c0-1.61 2.425-1.614 2.425 0v1.724c0 .477.14.936.404 1.328l4.434 6.561z" fill="#C01A6C"/><path d="M37.473 35.047h-.48c.134-.325.207-.681.207-1.046 0-1.34-1-2.45-2.294-2.625v-5.118c0-.677-1.054-.678-1.054 0v1.16H23.305l-.039.002a33.646 33.646 0 00-2.563-6.949v-.295h13.149v3.129c0 .677 1.054.678 1.054 0v-6.387c0-1.22-.61-2.348-1.632-3.016l-3.136-2.05V8.669c0-.963-.783-1.746-1.746-1.746h-2.23c-.962 0-1.745.783-1.745 1.746v3.185l-3.137 2.05a3.591 3.591 0 00-1.632 3.015v1.607a33.489 33.489 0 00-6.479-7.962 4.333 4.333 0 00-1.45-.864V7.47a.527.527 0 00-.527-.528h-.51V3.625A1.63 1.63 0 009.055 2H5.881c-.896 0-1.625.73-1.625 1.625v3.316h-.511a.527.527 0 00-.528.527v2.339A2.51 2.51 0 002 11.957v3.332c0 .677 1.055.678 1.055 0v-3.332c0-.802.653-1.455 1.455-1.455h5.756c.813 0 1.593.3 2.197.844a32.534 32.534 0 0110.734 24.127c.021.738-.342 1.472-1.188 1.472H4.243a1.19 1.19 0 01-1.188-1.188V18.242c0-.677-1.055-.678-1.055 0v17.515A2.245 2.245 0 004.243 38h23c.676 0 .677-1.055 0-1.055h-1.266v-.843h10.968v.843h-6.61c-.676 0-.677 1.055 0 1.055h7.138a.527.527 0 00.527-.527v-1.899a.527.527 0 00-.527-.527zM5.31 3.625c0-.314.256-.57.571-.57h3.175a.57.57 0 01.57.57V6.87H5.31V3.625zm-.8 5.822h-.238V7.996h6.393v1.451H4.51zm31.635 24.554c0 .371-.126.736-.344 1.01h-8.748a1.795 1.795 0 012.69-1.82.527.527 0 00.799-.434 1.09 1.09 0 011.095-1.058c.49 0 .924.33 1.055.804a.527.527 0 00.844.267 1.597 1.597 0 012.61 1.231zM25.471 8.668c0-.381.31-.691.692-.691h2.229c.381 0 .691.31.691.691v2.965h-3.612V8.668zm-3.614 6.117l3.21-2.098h4.42l3.21 2.098a2.54 2.54 0 011.155 2.133v2.203H20.703v-2.203c0-.863.432-1.66 1.154-2.133zm3.592 20.262a.527.527 0 00-.527.527v1.371H23.91c.216-.344.341-.752.341-1.188v-.284c0-2.37-.252-4.716-.74-7h10.34v2.973c-.146.04-.289.092-.426.156a2.155 2.155 0 00-1.788-.958A2.14 2.14 0 0029.636 32a2.85 2.85 0 00-3.641 3.046h-.546z" fill="#C01A6C"/></svg>