<svg width="40" height="40" viewBox="0 0 40 40" fill="none" xmlns="http://www.w3.org/2000/svg"><path d="M6.667 37.5h6.786a3.315 3.315 0 01-.02-1.641l.006-.026h-3.46a4.126 4.126 0 00.854-2.5A4.173 4.173 0 007.5 29.251V14.194a12.516 12.516 0 0111.667 12.473v.26a6.645 6.645 0 011.666-.252v-.008A14.172 14.172 0 007.5 12.542V10a5.84 5.84 0 015.833-5.833h1.862a5.826 5.826 0 015.534 3.988l5.104 15.313v5.699h-4.897a4.16 4.16 0 00-4.042 3.156l-1.035 4.142a.834.834 0 00.808 1.035h20a.833.833 0 00.808-1.035l-1.035-4.142a4.16 4.16 0 00-4.042-3.156H27.5v-5.834a.832.832 0 00-.043-.263L22.31 7.628A7.489 7.489 0 0015.195 2.5h-1.862a7.508 7.508 0 00-7.5 7.5v19.251a4.166 4.166 0 00.834 8.249zm25.73-6.667a2.498 2.498 0 012.426 1.893l.777 3.107H17.734l.776-3.107a2.498 2.498 0 012.426-1.893h11.462zm-25.73 0a2.5 2.5 0 110 5 2.5 2.5 0 010-5z" fill="#C01A6C"/></svg>