<svg width="40" height="40" viewBox="0 0 40 40" fill="none" xmlns="http://www.w3.org/2000/svg"><path d="M32.084 13.309a106.035 106.035 0 00-3.908-6.375l-.965-1.453-.977 1.406c-.06.095-1.359 2.025-2.884 4.599a1.185 1.185 0 00-.095-.167c-2.99-5.266-6.088-9.818-6.088-9.865L16.213 0l-.965 1.454s-3.074 4.599-6.076 9.913C5.073 18.623 3 23.806 3 26.76a13.214 13.214 0 0025.26 5.457 8.912 8.912 0 007.839-8.828c0-2.002-1.31-5.302-4.015-10.08zm-15.87 24.33A10.89 10.89 0 015.334 26.76c0-4.706 7.15-16.68 10.878-22.518a165.539 165.539 0 015.78 9.662c-2.444 4.456-3.635 7.566-3.635 9.485a8.912 8.912 0 007.351 8.757 10.879 10.879 0 01-9.496 5.492zm12.867-7.995a6.48 6.48 0 01-1.906.286 4.66 4.66 0 01-.584 0 6.565 6.565 0 01-5.957-6.518c0-1.5 1.191-4.206 2.657-6.994a71.4 71.4 0 011.358-2.466 87.268 87.268 0 012.538-4.194c.727 1.192 1.787 2.86 2.836 4.766 3.228 5.707 3.717 8.042 3.717 8.924a6.552 6.552 0 01-4.659 6.196z" fill="#C01A6C"/></svg>