<svg width="40" height="40" viewBox="0 0 40 40" fill="none" xmlns="http://www.w3.org/2000/svg"><path d="M20 1A18.939 18.939 0 006.565 6.565c-7.42 7.42-7.42 19.452 0 26.87A18.944 18.944 0 0020 39a18.94 18.94 0 0013.435-5.565c7.42-7.42 7.42-19.452 0-26.87A18.94 18.94 0 0020 1zm11.636 30.636A16.346 16.346 0 0120 36.456a16.357 16.357 0 01-11.636-4.82 16.35 16.35 0 01-4.82-11.637c0-4.397 1.713-8.527 4.82-11.637A16.349 16.349 0 0120 3.542c4.394 0 8.527 1.713 11.636 4.82a16.344 16.344 0 014.82 11.637c0 4.394-1.713 8.53-4.82 11.637zM27.55 18.642h-6.362V9.718a1.272 1.272 0 10-2.544 0v10.197a1.272 1.272 0 001.272 1.272h7.634a1.272 1.272 0 100-2.545z" fill="#C01A6C"/></svg>