<svg width="40" height="40" viewBox="0 0 40 40" fill="none" xmlns="http://www.w3.org/2000/svg"><path d="M38.208 20h-1.583v-.792a2.375 2.375 0 00-2.2-2.375L22.28 13.477a3.167 3.167 0 00-1.069-5.114c-.506-.238-.42-.563-.42-2.613h1.584a2.375 2.375 0 002.375-2.375V1.792A.792.792 0 0023.958 1h-7.916a.792.792 0 00-.792.792v1.583a2.375 2.375 0 002.375 2.375h1.583c0 1.718-.269 3.388 1.394 4.077a1.583 1.583 0 11-2.185 1.465.791.791 0 00-.792-.792c-1.282 0-.84 1.987.11 2.977l-12.16 3.356a2.375 2.375 0 00-2.2 2.375V20H1.792a.792.792 0 00-.792.792v17.416a.792.792 0 00.792.792h36.416a.791.791 0 00.792-.792V20.792a.791.791 0 00-.792-.792zM16.833 3.375v-.792h6.334v.792a.792.792 0 01-.792.792h-4.75a.792.792 0 01-.792-.792zM35.042 20h-1.584v-.792a.792.792 0 011.584 0V20zM8.125 20a3.262 3.262 0 00-.396-2.106L20 14.458l12.27 3.405A3.262 3.262 0 0031.876 20H8.125zm-3.167-.792a.792.792 0 011.584 0V20H4.958v-.792zm32.459 18.209H2.583V21.583h34.834v15.834z" fill="#C01A6C"/><path d="M17.632 23.813v11.375c0 .215.083.422.23.574a.778.778 0 00.56.238c.208 0 .41-.086.557-.238a.824.824 0 00.232-.575V23.813a.824.824 0 00-.232-.575.778.778 0 00-.558-.238c-.21 0-.41.086-.558.238a.825.825 0 00-.231.575zm3.157 0v11.375c0 .215.084.422.232.574a.778.778 0 00.558.238c.21 0 .41-.086.558-.238a.825.825 0 00.231-.575V23.813a.825.825 0 00-.23-.575.778.778 0 00-.56-.238.778.778 0 00-.557.238.825.825 0 00-.232.575zm3.158 0v11.375c0 .215.084.422.232.574a.778.778 0 00.558.238c.21 0 .41-.086.558-.238a.825.825 0 00.231-.575V23.813a.825.825 0 00-.23-.575.778.778 0 00-.56-.238.776.776 0 00-.557.238.824.824 0 00-.232.575zm-9.473 0v11.375c0 .215.083.422.23.574a.778.778 0 00.56.238c.209 0 .41-.086.557-.238a.824.824 0 00.232-.575V23.813a.824.824 0 00-.232-.575.778.778 0 00-.558-.238c-.21 0-.41.086-.558.238a.825.825 0 00-.231.575zm-9.474 0v11.375c0 .215.083.422.231.574A.778.778 0 005.79 36c.21 0 .41-.086.559-.238a.824.824 0 00.23-.575V23.813a.824.824 0 00-.23-.575A.778.778 0 005.79 23a.78.78 0 00-.558.238.824.824 0 00-.231.575zm3.158 0v11.375c0 .215.083.422.231.574a.778.778 0 00.558.238c.21 0 .41-.086.559-.238a.824.824 0 00.23-.575V23.813a.824.824 0 00-.23-.575.778.778 0 00-.559-.238.78.78 0 00-.558.238.824.824 0 00-.231.575zm3.158 0v11.375c0 .215.083.422.231.574a.778.778 0 00.558.238c.21 0 .41-.086.559-.238a.824.824 0 00.23-.575V23.813a.824.824 0 00-.23-.575.778.778 0 00-.559-.238c-.21 0-.41.086-.558.238a.825.825 0 00-.231.575zm15.79 0v11.375c0 .215.082.422.23.574a.778.778 0 00.559.238c.21 0 .41-.086.558-.238a.825.825 0 00.231-.575V23.813a.825.825 0 00-.231-.575.778.778 0 00-.558-.238c-.21 0-.41.086-.558.238a.824.824 0 00-.232.575zm3.157 0v11.375c0 .215.083.422.231.574a.778.778 0 00.559.238.78.78 0 00.558-.238.825.825 0 00.231-.575V23.813a.825.825 0 00-.231-.575.778.778 0 00-.558-.238c-.21 0-.41.086-.559.238a.824.824 0 00-.23.575zm3.158 0v11.375c0 .215.083.422.231.574a.778.778 0 00.559.238.78.78 0 00.558-.238.825.825 0 00.231-.575V23.813a.825.825 0 00-.231-.575.778.778 0 00-.558-.238c-.21 0-.41.086-.559.238a.824.824 0 00-.23.575z" fill="#C01A6C"/></svg>