<svg width="40" height="40" viewBox="0 0 40 40" fill="none" xmlns="http://www.w3.org/2000/svg"><path d="M1.215 23.78l5.158 1.748c.789.25 1.639-.063 2.003-.75l8.677 7.114c.061.063.061.063.122.063 1.456.624 3.095.873 4.308-.125l.668.686c.667.624 2.427.687 3.095-.062.242-.312.364-.624.424-.936.85.062 1.639-.312 1.7-.374.727-.312 1.031-1.061 1.152-1.685 1.457.125 2.367-.5 2.731-1.498a2.383 2.383 0 00-.121-1.934l.91-.624c.364.437.85.686 1.396.686.242 0 .485-.062.728-.124l4.733-2.122a1.929 1.929 0 00.971-2.434l-4.066-10.296c-.364-.935-1.456-1.372-2.366-1.06l-5.158 1.996c-.486.188-.91.624-1.093 1.248-4.248-1.872-11.105-1.747-15.717-1.185-.12-.5-.546-.936-1.031-1.186l-4.976-1.81c-.971-.374-2.003.188-2.306 1.186L.062 21.596c-.243.936.243 1.872 1.153 2.184zM30.1 27.524c-.303.812-1.092.812-1.881.624l-4.248-5.116c-.243-.25-.607-.312-.85-.063-.242.25-.303.624-.06.874l4.248 5.117c0 .25-.061.873-.486 1.06-.06 0-.667.312-1.335.188l-4.49-5.741c-.182-.25-.607-.312-.85-.125s-.303.624-.121.874l4.49 5.74c-.06.936-.667.687-.728.75-1.153 0-.85-.313-1.881-1.186l-3.58-4.493c-.243-.25-.607-.312-.85-.063-.243.25-.303.625-.06.874l3.276 4.056c-.85.624-2.002.374-2.912-.062L8.74 23.53c.243-1.06-.971 3.744 2.61-10.046.606-.063 1.88-.188 3.458-.312-.85 1.56-2.063 4.368-.728 6.115 1.82 2.308 4.915-.5 6.19-1.248.364 0 4.43.187 9.405 8.174.182.063.729.5.425 1.31zm-1.396-14.227l5.158-1.996c.304-.125.668.062.79.374l4.126 10.233c.121.313 0 .687-.304.812l-1.638.748a1.77 1.77 0 00.91-1.56c0-.998-.789-1.81-1.76-1.81-.97 0-1.76.812-1.76 1.81 0 1.186 1.093 2.06 2.246 1.685l-2.792 1.248c-.303.125-.667 0-.788-.312-.122-.436-4.43-10.296-4.552-10.42a.63.63 0 01.364-.812zm7.828 8.55a.552.552 0 01-.546.56.552.552 0 01-.546-.56c0-.313.243-.563.546-.563.304 0 .546.25.546.562zm-9.163-6.99l4.187 9.423-1.031.686c-5.098-7.862-9.588-8.424-10.498-8.174-.182.062-.364.187-.79.499-1.638 1.186-3.337 2.246-4.125 1.186-1.032-1.31.424-4.119 1.213-5.43 3.338-.062 8.01.188 11.044 1.81zM1.215 21.971l3.156-11.294c.06-.312.364-.5.667-.375l4.915 1.935a.551.551 0 01.304.624c-3.945 15.35-2.61 10.046-2.913 11.17-.06.311-.364.436-.667.373l-5.158-1.747c-.182-.125-.365-.436-.304-.686z" fill="#C01A6C"/><path d="M4 23c1.103 0 2-.897 2-2s-.897-2-2-2-2 .897-2 2 .897 2 2 2zm0-2.62c.345 0 .62.275.62.62s-.344.62-.62.62-.62-.275-.62-.62.275-.62.62-.62z" fill="#C01A6C"/></svg>