<svg width="75" height="74" viewBox="0 0 75 74" fill="none" xmlns="http://www.w3.org/2000/svg"><circle cx="20" cy="27" r="4" fill="#C01A6C"/><circle cx="13" cy="21" r="3" fill="#C01A6C"/><circle cx="13" cy="15" r="2" fill="#C01A6C"/><circle cx="15" cy="11" r="1" fill="#C01A6C"/><circle cx="27.702" cy="19.709" r="4" transform="rotate(28.26 27.702 19.709)" fill="#C01A6C"/><circle cx="24.377" cy="11.109" r="3" transform="rotate(28.26 24.377 11.11)" fill="#C01A6C"/><circle cx="27.218" cy="5.824" r="2" transform="rotate(28.26 27.218 5.824)" fill="#C01A6C"/><circle cx="30.873" cy="3.248" r="1" transform="rotate(28.26 30.873 3.248)" fill="#C01A6C"/><circle cx="37.359" cy="17.662" r="4" transform="rotate(59.949 37.359 17.662)" fill="#C01A6C"/><circle cx="39.047" cy="8.599" r="3" transform="rotate(59.949 39.047 8.599)" fill="#C01A6C"/><circle cx="44.24" cy="5.594" r="2" transform="rotate(59.949 44.24 5.594)" fill="#C01A6C"/><circle cx="48.704" cy="5.322" r="1" transform="rotate(59.949 48.704 5.322)" fill="#C01A6C"/><circle cx="46.987" cy="19.579" r="4" transform="rotate(90.689 46.987 19.579)" fill="#C01A6C"/><circle cx="53.071" cy="12.652" r="3" transform="rotate(90.689 53.07 12.652)" fill="#C01A6C"/><circle cx="59.071" cy="12.724" r="2" transform="rotate(90.689 59.07 12.724)" fill="#C01A6C"/><circle cx="63.046" cy="14.772" r="1" transform="rotate(90.689 63.046 14.772)" fill="#C01A6C"/><circle cx="54.417" cy="27.702" r="4" transform="rotate(118.266 54.417 27.702)" fill="#C01A6C"/><circle cx="63.017" cy="24.378" r="3" transform="rotate(118.266 63.017 24.378)" fill="#C01A6C"/><circle cx="68.301" cy="27.219" r="2" transform="rotate(118.266 68.301 27.22)" fill="#C01A6C"/><circle cx="70.877" cy="30.875" r="1" transform="rotate(118.266 70.877 30.875)" fill="#C01A6C"/><circle cx="57.248" cy="36.018" r="4" transform="rotate(153.439 57.248 36.018)" fill="#C01A6C"/><circle cx="66.192" cy="38.255" r="3" transform="rotate(153.439 66.192 38.255)" fill="#C01A6C"/><circle cx="68.875" cy="43.621" r="2" transform="rotate(153.439 68.875 43.621)" fill="#C01A6C"/><circle cx="68.875" cy="48.094" r="1" transform="rotate(153.439 68.875 48.094)" fill="#C01A6C"/><circle cx="54.1" cy="47.253" r="4" transform="rotate(178.546 54.1 47.253)" fill="#C01A6C"/><circle cx="61.25" cy="53.073" r="3" transform="rotate(178.546 61.25 53.073)" fill="#C01A6C"/><circle cx="61.403" cy="59.071" r="2" transform="rotate(178.546 61.403 59.071)" fill="#C01A6C"/><circle cx="59.505" cy="63.121" r="1" transform="rotate(178.546 59.505 63.12)" fill="#C01A6C"/><circle cx="46.522" cy="53.411" r="4" transform="rotate(-151.962 46.522 53.41)" fill="#C01A6C"/><circle cx="49.88" cy="61.997" r="3" transform="rotate(-151.962 49.88 61.997)" fill="#C01A6C"/><circle cx="47.059" cy="67.293" r="2" transform="rotate(-151.962 47.06 67.293)" fill="#C01A6C"/><circle cx="43.414" cy="69.883" r="1" transform="rotate(-151.962 43.414 69.883)" fill="#C01A6C"/><circle cx="36.519" cy="56.096" r="4" transform="rotate(-121.496 36.52 56.096)" fill="#C01A6C"/><circle cx="35.06" cy="65.2" r="3" transform="rotate(-121.496 35.06 65.2)" fill="#C01A6C"/><circle cx="29.944" cy="68.334" r="2" transform="rotate(-121.496 29.944 68.334)" fill="#C01A6C"/><circle cx="25.488" cy="68.719" r="1" transform="rotate(-121.496 25.488 68.719)" fill="#C01A6C"/><circle cx="27.125" cy="54.133" r="4" transform="rotate(-91.934 27.125 54.133)" fill="#C01A6C"/><circle cx="21.365" cy="61.331" r="3" transform="rotate(-91.934 21.365 61.331)" fill="#C01A6C"/><circle cx="15.368" cy="61.534" r="2" transform="rotate(-91.934 15.368 61.534)" fill="#C01A6C"/><circle cx="11.303" cy="59.67" r="1" transform="rotate(-91.934 11.303 59.67)" fill="#C01A6C"/><circle cx="19.714" cy="46.674" r="4" transform="rotate(-61.292 19.714 46.674)" fill="#C01A6C"/><circle cx="11.089" cy="49.932" r="3" transform="rotate(-61.292 11.089 49.932)" fill="#C01A6C"/><circle cx="5.826" cy="47.05" r="2" transform="rotate(-61.292 5.826 47.05)" fill="#C01A6C"/><circle cx="3.279" cy="43.374" r="1" transform="rotate(-61.292 3.279 43.374)" fill="#C01A6C"/><circle cx="17.381" cy="37.053" r="4" transform="rotate(-25.692 17.381 37.053)" fill="#C01A6C"/><circle cx="8.472" cy="34.681" r="3" transform="rotate(-25.692 8.472 34.681)" fill="#C01A6C"/><circle cx="5.871" cy="29.275" r="2" transform="rotate(-25.692 5.871 29.275)" fill="#C01A6C"/><circle cx="5.939" cy="24.803" r="1" transform="rotate(-25.692 5.94 24.803)" fill="#C01A6C"/><circle cx="37" cy="37" r="13.5" stroke="#C01A6C"/><circle cx="37" cy="37" r="11" fill="#C01A6C"/><path d="M40.656 33v9.953H39.33l-5.01-7.677v7.677H33V33h1.32l5.03 7.697V33h1.306z" fill="#000"/></svg>