<svg width="40" height="40" viewBox="0 0 40 40" fill="none" xmlns="http://www.w3.org/2000/svg"><path fill-rule="evenodd" clip-rule="evenodd" d="M33.384 10.967a.92.92 0 01.59.372.873.873 0 01.148.668c-1.339 7.078-4.573 11.987-9.13 15.108-4.537 3.107-10.285 4.373-16.54 4.373H4.73a.933.933 0 01-.65-.261.88.88 0 01-.27-.632.88.88 0 01.27-.631.933.933 0 01.65-.262h3.724c6.021 0 11.353-1.221 15.479-4.046 4.105-2.81 7.116-7.277 8.383-13.972a.892.892 0 01.382-.574.94.94 0 01.688-.143z" fill="#C01A6C"/><path fill-rule="evenodd" clip-rule="evenodd" d="M33.785 10.086a.93.93 0 01.345.164.899.899 0 01.247.287l2.412 4.464a.876.876 0 01-.376 1.225.94.94 0 01-1.028-.115.895.895 0 01-.223-.28l-1.931-3.574-3.168 2.11a.941.941 0 01-.689.142.923.923 0 01-.59-.373.873.873 0 01-.145-.668.892.892 0 01.383-.574l4.022-2.678a.933.933 0 01.74-.13zM5.648 3.81v30.357h31.247v1.785H4.729a.933.933 0 01-.65-.261.88.88 0 01-.27-.631V3.81h1.839z" fill="#C01A6C"/><path fill-rule="evenodd" clip-rule="evenodd" d="M17.134 8.631c-.999 0-1.957.386-2.664 1.072a3.609 3.609 0 00-1.104 2.589c0 .97.397 1.902 1.104 2.588a3.825 3.825 0 002.664 1.072c1 0 1.958-.385 2.665-1.072a3.608 3.608 0 001.104-2.588 3.61 3.61 0 00-1.104-2.589 3.825 3.825 0 00-2.665-1.072zm-5.606 3.66c0-.715.145-1.423.427-2.084a5.437 5.437 0 011.215-1.766 5.62 5.62 0 011.82-1.181 5.749 5.749 0 014.29 0c.68.274 1.298.675 1.819 1.18.52.506.933 1.107 1.215 1.768a5.3 5.3 0 01.427 2.084c0 1.444-.591 2.83-1.642 3.85a5.69 5.69 0 01-3.965 1.596 5.69 5.69 0 01-3.964-1.595 5.37 5.37 0 01-1.642-3.851zm3.906-7.589a.88.88 0 01.27-.63.933.933 0 01.65-.262h1.562c.243 0 .477.094.65.261a.88.88 0 01.269.631.88.88 0 01-.27.632.933.933 0 01-.65.261h-1.562a.933.933 0 01-.65-.261.88.88 0 01-.269-.632z" fill="#C01A6C"/><path fill-rule="evenodd" clip-rule="evenodd" d="M16.217 8.497V5.461h1.838v3.036h-1.838zm4.956-2.908a.933.933 0 01.65-.261c.244 0 .477.094.65.261l1.562 1.518a.88.88 0 01.258.628.88.88 0 01-.27.624.934.934 0 01-1.288.01l-1.562-1.517a.88.88 0 01-.269-.632.88.88 0 01.27-.63z" fill="#C01A6C"/><path fill-rule="evenodd" clip-rule="evenodd" d="M19.61 8.624l2.344-2.276 1.3 1.262-2.344 2.277-1.3-1.263zm5.337 2.016c.244 0 .478.094.65.261a.88.88 0 01.27.632v1.517a.88.88 0 01-.27.632.933.933 0 01-.65.261.933.933 0 01-.65-.261.88.88 0 01-.269-.632v-1.518a.88.88 0 01.27-.63.933.933 0 01.65-.262z" fill="#C01A6C"/><path fill-rule="evenodd" clip-rule="evenodd" d="M20.904 12.292a.88.88 0 01.27-.632.933.933 0 01.65-.261h3.124c.244 0 .477.094.65.261a.88.88 0 01.27.632.88.88 0 01-.27.631.933.933 0 01-.65.261h-3.125a.932.932 0 01-.65-.261.88.88 0 01-.269-.631zm3.913 3.922a.88.88 0 01.269.631.88.88 0 01-.27.632l-1.562 1.517a.933.933 0 01-.646.25.933.933 0 01-.642-.26.88.88 0 01-.27-.624.88.88 0 01.259-.628l1.562-1.518a.933.933 0 01.65-.261c.244 0 .477.094.65.261z" fill="#C01A6C"/><path fill-rule="evenodd" clip-rule="evenodd" d="M21.69 14.696l2.344 2.277-1.3 1.262-2.343-2.276 1.3-1.263zm-6.255 5.185a.88.88 0 01.269-.631.933.933 0 01.65-.262h1.562c.244 0 .477.094.65.262a.88.88 0 01.269.631.88.88 0 01-.27.631.932.932 0 01-.649.262h-1.562a.932.932 0 01-.65-.262.88.88 0 01-.27-.631z" fill="#C01A6C"/><path fill-rule="evenodd" clip-rule="evenodd" d="M17.135 15.952a.93.93 0 01.65.262.88.88 0 01.27.631v3.036a.88.88 0 01-.27.631.933.933 0 01-.65.262.933.933 0 01-.65-.262.88.88 0 01-.269-.631v-3.036a.88.88 0 01.27-.631.933.933 0 01.65-.262zm-6.9.262a.933.933 0 01.65-.262.93.93 0 01.65.262l1.563 1.518a.88.88 0 01.258.628.88.88 0 01-.27.623.934.934 0 01-1.288.01l-1.562-1.517a.88.88 0 01-.27-.631.88.88 0 01.27-.631z" fill="#C01A6C"/><path fill-rule="evenodd" clip-rule="evenodd" d="M14.66 15.959l-2.343 2.276-1.3-1.262 2.344-2.277 1.3 1.263zm-5.337-5.32c.244 0 .478.095.65.262a.88.88 0 01.27.632v1.518a.88.88 0 01-.27.631.933.933 0 01-.65.261.933.933 0 01-.65-.261.88.88 0 01-.269-.631v-1.518a.88.88 0 01.27-.632.933.933 0 01.65-.261z" fill="#C01A6C"/><path fill-rule="evenodd" clip-rule="evenodd" d="M8.404 12.292a.88.88 0 01.27-.632.933.933 0 01.65-.261h3.124c.244 0 .477.094.65.261a.88.88 0 01.27.632.88.88 0 01-.27.631.933.933 0 01-.65.262H9.323a.933.933 0 01-.65-.262.88.88 0 01-.269-.631zm4.694-6.703a.88.88 0 01.269.631.88.88 0 01-.27.632l-1.562 1.517a.933.933 0 01-.646.251.933.933 0 01-.642-.261.88.88 0 01-.269-.624.88.88 0 01.258-.628l1.562-1.518a.933.933 0 01.65-.261c.244 0 .477.094.65.261z" fill="#C01A6C"/><path fill-rule="evenodd" clip-rule="evenodd" d="M13.361 9.887L11.018 7.61l1.3-1.262 2.343 2.276-1.3 1.263z" fill="#C01A6C"/></svg>