<svg width="40" height="40" viewBox="0 0 40 40" fill="none" xmlns="http://www.w3.org/2000/svg"><path d="M6.31 26.399v-1.34H3.63v1.34a9.375 9.375 0 009.376 9.375h4.018v-2.679h-4.018A6.697 6.697 0 016.309 26.4zm24.106-13.393v1.34h2.679v-1.34a9.375 9.375 0 00-9.375-9.375h-4.018V6.31h4.018a6.696 6.696 0 016.696 6.696zm-17.41 0H4.97a4.018 4.018 0 00-4.018 4.018v2.678h2.679v-2.678a1.34 1.34 0 011.339-1.34h8.036a1.339 1.339 0 011.339 1.34v2.678h2.679v-2.678a4.018 4.018 0 00-4.018-4.018zm-4.018-1.34a5.357 5.357 0 100-10.712 5.357 5.357 0 000 10.713zm0-8.035a2.679 2.679 0 110 5.357 2.679 2.679 0 010-5.357zm25.446 28.125H26.4a4.018 4.018 0 00-4.018 4.018v2.678h2.678v-2.678a1.34 1.34 0 011.34-1.34h8.035a1.34 1.34 0 011.34 1.34v2.678h2.678v-2.678a4.018 4.018 0 00-4.018-4.018zm-9.375-6.697a5.358 5.358 0 1010.715 0 5.358 5.358 0 00-10.715 0zm8.036 0a2.679 2.679 0 11-5.358 0 2.679 2.679 0 015.358 0z" fill="#C01A6C"/></svg>