<svg width="40" height="40" viewBox="0 0 40 40" fill="none" xmlns="http://www.w3.org/2000/svg"><path d="M28.479 18.704a1.003 1.003 0 00-1.418-1.418l-7.31 7.311-3.302-3.3a1.003 1.003 0 00-1.418 1.417l4.72 4.719 8.728-8.73z" fill="#C01A6C"/><path fill-rule="evenodd" clip-rule="evenodd" d="M33.785 10.977V32.03a3.008 3.008 0 01-3.008 3.008H12.732a3.008 3.008 0 01-3.007-3.008V3.96A3.008 3.008 0 0112.732.952H23.76l10.025 10.025zM23.76 11.98a1.003 1.003 0 01-1.003-1.003v-8.02H12.732A1.003 1.003 0 0011.73 3.96v28.07a1.003 1.003 0 001.002 1.003h18.045a1.003 1.003 0 001.003-1.003V11.98h-8.02zm1.002-7.19l5.185 5.185h-5.185V4.79z" fill="#C01A6C"/><path d="M7.719 6.967v27.068a3.007 3.007 0 003.007 3.007h19.048v2.005H10.726a5.013 5.013 0 01-5.012-5.012V6.967h2.005z" fill="#C01A6C"/></svg>