<svg width="40" height="40" viewBox="0 0 40 40" fill="none" xmlns="http://www.w3.org/2000/svg"><path d="M29.488 20a21.531 21.531 0 00-.477-4.444h4a13.66 13.66 0 00-.745-1.778h-3.722a21.915 21.915 0 00-3.211-6.522A13.669 13.669 0 0022.5 6.41a19.81 19.81 0 014.322 7.322h-5.99v-7.51h-1.666v7.522h-5.989a19.811 19.811 0 014.334-7.334c-.968.175-1.915.455-2.823.833a21.91 21.91 0 00-3.233 6.5H7.711a13.61 13.61 0 00-.756 1.812h4.033A21.538 21.538 0 0010.511 20a21.86 21.86 0 00.555 4.856H7.133c.23.622.505 1.228.822 1.81h3.589a21.464 21.464 0 002.989 5.956c.93.4 1.904.694 2.9.878a19.898 19.898 0 01-4.1-6.833h5.844v7.044h1.667v-7.044h5.822a19.89 19.89 0 01-4.11 6.833c1-.19 1.976-.492 2.91-.9a21.47 21.47 0 002.99-5.933h3.555c.316-.573.59-1.167.822-1.778h-3.945c.384-1.602.585-3.242.6-4.889zm-10.322 4.856h-6.378a19.657 19.657 0 01-.1-9.334h6.478v9.334zm8.045 0h-6.378v-9.3h6.478c.319 1.46.475 2.95.466 4.444a20.136 20.136 0 01-.566 4.856z" fill="#C01A6C"/><path d="M20 2.222a17.778 17.778 0 100 35.556 17.778 17.778 0 000-35.556zm0 33.334a15.556 15.556 0 110-31.113 15.556 15.556 0 010 31.113z" fill="#C01A6C"/></svg>