<svg width="40" height="40" viewBox="0 0 40 40" fill="none" xmlns="http://www.w3.org/2000/svg"><path fill-rule="evenodd" clip-rule="evenodd" d="M33.47 8.898L31.016.952l-2.454 7.946-4.747 2.26 4.768 2.27 2.433 6.952 2.433-6.952 4.767-2.27-4.746-2.26zm-3.165 1.506l.71-2.302.712 2.303 1.582.753-1.561.744-.732 2.09-.732-2.09-1.561-.744 1.582-.753v-.001z" fill="#C01A6C"/><path d="M14.666 11.384l1.054-4.22 1.055 4.22 3.165 1.055-3.165 1.055-1.055 4.22-1.054-4.22-3.165-1.055 3.165-1.055z" fill="#C01A6C"/><path fill-rule="evenodd" clip-rule="evenodd" d="M8.336 36.437v.26a2.11 2.11 0 01-2.11 2.11H3.062a2.11 2.11 0 01-2.11-2.11V25.098a2.11 2.11 0 012.11-2.11h3.164a2.11 2.11 0 012.054 1.624c1.397-.503 3.029-1.102 3.528-1.33.424-.193.913-.258 1.32-.283.42-.02.842-.013 1.261.023.47.037.937.096 1.4.177l.025.004.008.001h.003l.019.004 7.057 1.583.043.014.012.005.048.014c.304.09.612.168.922.235.607.132 1.371.256 2.083.256.659 0 1.34.245 1.703.912.312.572.24 1.2.123 1.635-.146.542-.448 1.112-.83 1.596a67.144 67.144 0 001.69-.675l.13-.053c1.712-.703 3.741-1.537 5.533-1.832 2.046-.338 3.535.404 4.21 1.722.6 1.173.462 2.712-.444 3.639-.226.233-.572.478-.92.703-.37.241-.827.512-1.335.801a90.115 90.115 0 01-3.539 1.88c-2.502 1.269-5.124 2.503-5.958 2.808-.966.353-2.004.387-3 .335a40.125 40.125 0 01-1.804-.153 58.162 58.162 0 00-1.318-.12c-2.034-.155-3.595-.652-5.032-1.108l-.175-.056c-1.485-.47-2.867-.89-4.697-.963-.418-.017-1.253.014-2.01.05v.001zm4.346-11.235c.069-.032.248-.077.568-.096.3-.018.641-.007.976.019.4.032.798.082 1.194.15h.003l6.927 1.555.047.014c.357.105.717.197 1.08.277.617.135 1.445.276 2.288.3a2.528 2.528 0 01-.301.573 2.263 2.263 0 01-.505.542c-.44.315-.793.445-1.009.501-.073.02-.148.035-.223.043h-.024l-5.656-.068-.2 2.093.188-1.038-.188 1.038.056.01.161.029.587.103c.492.087 1.169.203 1.905.323 1.45.236 3.196.498 4.188.558.685.042 1.483-.169 2.224-.417.773-.258 1.648-.616 2.528-.976 1.81-.743 3.656-1.5 5.206-1.756 1.34-.221 1.817.268 1.988.603.246.48.113 1.012-.076 1.204-.045.048-.211.182-.557.406-.323.208-.74.458-1.229.736a88.582 88.582 0 01-3.451 1.833c-2.524 1.28-5.034 2.454-5.73 2.709-.564.207-1.261.256-2.167.21a30.735 30.735 0 01-1.598-.136c-.49-.052-.981-.097-1.473-.135-1.785-.135-3.141-.567-4.596-1.029l-.132-.042c-1.506-.478-3.118-.975-5.25-1.06-.48-.02-1.334.01-2.095.046v-7.49c1.482-.53 3.678-1.327 4.346-1.632zm2.95-.96l.193-1.037-.193 1.037zm-9.406.855H3.062v11.599h3.164V25.097z" fill="#C01A6C"/></svg>